<svg xmlns="http://www.w3.org/2000/svg" width="1200" height="630" viewBox="0 0 1200 630">
  <rect width="1200" height="630" fill="#080808"/>
  <rect width="1200" height="8" fill="#d1494f"/>
  <rect x="885" width="315" height="8" fill="#5b2024"/>
  <g stroke="#f1eded" opacity=".1">
    <path d="M0 126h1200M0 252h1200M0 378h1200M0 504h1200"/>
    <path d="M240 0v630M480 0v630M720 0v630M960 0v630"/>
  </g>
  <circle cx="1020" cy="178" r="108" fill="none" stroke="#d1494f" stroke-width="3" stroke-dasharray="7 10"/>
  <circle cx="1020" cy="178" r="58" fill="#d1494f"/>
  <path d="M938 278c50 0 41 78 93 78s43-124 105-124" fill="none" stroke="#df7478" stroke-width="5"/>
  <circle cx="938" cy="278" r="8" fill="#df7478"/>
  <circle cx="1031" cy="356" r="8" fill="#df7478"/>
  <circle cx="1136" cy="232" r="8" fill="#df7478"/>
  <g font-family="Arial, Helvetica, sans-serif" fill="#f1eded">
    <text x="72" y="96" font-size="20" font-weight="700" letter-spacing="4">JUANJO NAVARRO / PORTFOLIO</text>
    <text x="72" y="268" font-size="88" font-weight="600" letter-spacing="-5">Reliable data.</text>
    <text x="72" y="365" font-family="Georgia, serif" font-size="94" font-style="italic" fill="#d1494f" letter-spacing="-4">Useful systems.</text>
    <text x="76" y="466" font-size="27" fill="#b4aaaa">Data Engineer · Barcelona, Spain</text>
    <text x="76" y="557" font-size="18" font-weight="700" letter-spacing="3">PYTHON · SQL · AIRFLOW · AWS</text>
  </g>
</svg>
